<mxfile host="app.diagrams.net" modified="2023-11-21T23:32:04.513Z" agent="Mozilla/5.0 (Windows NT 10.0; Win64; x64) AppleWebKit/537.36 (KHTML, like Gecko) Chrome/119.0.0.0 Safari/537.36 Edg/119.0.0.0" etag="eNZGmgsghe167gl_53NA" version="22.1.3" type="github">
  <diagram id="C5RBs43oDa-KdzZeNtuy" name="Page-1">
    <mxGraphModel dx="1186" dy="763" grid="1" gridSize="10" guides="1" tooltips="1" connect="1" arrows="1" fold="1" page="1" pageScale="1" pageWidth="827" pageHeight="1169" math="0" shadow="0">
      <root>
        <mxCell id="WIyWlLk6GJQsqaUBKTNV-0" />
        <mxCell id="WIyWlLk6GJQsqaUBKTNV-1" parent="WIyWlLk6GJQsqaUBKTNV-0" />
        <mxCell id="TlhrCSe95SY9jLTqjl-a-2" value="" style="rounded=0;orthogonalLoop=1;jettySize=auto;html=1;fontSize=14;" edge="1" parent="WIyWlLk6GJQsqaUBKTNV-1" source="TlhrCSe95SY9jLTqjl-a-0" target="TlhrCSe95SY9jLTqjl-a-5">
          <mxGeometry relative="1" as="geometry">
            <mxPoint x="190" y="550" as="targetPoint" />
          </mxGeometry>
        </mxCell>
        <mxCell id="TlhrCSe95SY9jLTqjl-a-0" value="START" style="strokeWidth=2;html=1;shape=mxgraph.flowchart.start_1;whiteSpace=wrap;fontSize=14;" vertex="1" parent="WIyWlLk6GJQsqaUBKTNV-1">
          <mxGeometry x="40" y="40" width="100" height="60" as="geometry" />
        </mxCell>
        <mxCell id="TlhrCSe95SY9jLTqjl-a-4" value="" style="rounded=0;orthogonalLoop=1;jettySize=auto;html=1;fontSize=14;" edge="1" parent="WIyWlLk6GJQsqaUBKTNV-1" source="TlhrCSe95SY9jLTqjl-a-5" target="TlhrCSe95SY9jLTqjl-a-3">
          <mxGeometry relative="1" as="geometry">
            <mxPoint x="310" y="550" as="sourcePoint" />
          </mxGeometry>
        </mxCell>
        <mxCell id="TlhrCSe95SY9jLTqjl-a-9" value="Dockside Monitoring / Port Sampling" style="rounded=0;orthogonalLoop=1;jettySize=auto;html=1;fontSize=14;" edge="1" parent="WIyWlLk6GJQsqaUBKTNV-1" source="TlhrCSe95SY9jLTqjl-a-3" target="TlhrCSe95SY9jLTqjl-a-21">
          <mxGeometry relative="1" as="geometry">
            <mxPoint x="395" y="80" as="targetPoint" />
          </mxGeometry>
        </mxCell>
        <mxCell id="TlhrCSe95SY9jLTqjl-a-12" value="At Sea Data" style="rounded=0;orthogonalLoop=1;jettySize=auto;html=1;fontSize=14;" edge="1" parent="WIyWlLk6GJQsqaUBKTNV-1" source="TlhrCSe95SY9jLTqjl-a-3" target="TlhrCSe95SY9jLTqjl-a-11">
          <mxGeometry relative="1" as="geometry" />
        </mxCell>
        <mxCell id="TlhrCSe95SY9jLTqjl-a-3" value="What Kind &lt;br style=&quot;font-size: 14px;&quot;&gt;of Data?" style="rhombus;whiteSpace=wrap;html=1;strokeWidth=2;fontSize=14;" vertex="1" parent="WIyWlLk6GJQsqaUBKTNV-1">
          <mxGeometry x="380" y="150" width="130" height="130" as="geometry" />
        </mxCell>
        <mxCell id="TlhrCSe95SY9jLTqjl-a-5" value="Collect Data" style="rounded=1;whiteSpace=wrap;html=1;absoluteArcSize=1;arcSize=14;strokeWidth=2;fontSize=14;" vertex="1" parent="WIyWlLk6GJQsqaUBKTNV-1">
          <mxGeometry x="240" y="50" width="100" height="100" as="geometry" />
        </mxCell>
        <mxCell id="TlhrCSe95SY9jLTqjl-a-24" style="rounded=0;orthogonalLoop=1;jettySize=auto;html=1;fontSize=14;" edge="1" parent="WIyWlLk6GJQsqaUBKTNV-1" source="TlhrCSe95SY9jLTqjl-a-10" target="TlhrCSe95SY9jLTqjl-a-13">
          <mxGeometry relative="1" as="geometry" />
        </mxCell>
        <mxCell id="TlhrCSe95SY9jLTqjl-a-10" value="Andes&lt;br style=&quot;font-size: 14px;&quot;&gt;Port Sampling Application" style="image;aspect=fixed;perimeter=ellipsePerimeter;html=1;align=center;shadow=0;dashed=0;spacingTop=3;image=img/lib/active_directory/tablet_pc.svg;fontSize=14;" vertex="1" parent="WIyWlLk6GJQsqaUBKTNV-1">
          <mxGeometry x="404.05" y="440" width="81.9" height="112.19" as="geometry" />
        </mxCell>
        <mxCell id="TlhrCSe95SY9jLTqjl-a-14" style="rounded=0;orthogonalLoop=1;jettySize=auto;html=1;fontSize=14;" edge="1" parent="WIyWlLk6GJQsqaUBKTNV-1" source="TlhrCSe95SY9jLTqjl-a-11" target="TlhrCSe95SY9jLTqjl-a-13">
          <mxGeometry relative="1" as="geometry" />
        </mxCell>
        <mxCell id="TlhrCSe95SY9jLTqjl-a-11" value="Andes&lt;br style=&quot;font-size: 14px;&quot;&gt;Ecosystem Survey Application" style="verticalLabelPosition=bottom;sketch=0;aspect=fixed;html=1;verticalAlign=top;strokeColor=none;align=center;outlineConnect=0;shape=mxgraph.citrix.desktop;fontSize=14;" vertex="1" parent="WIyWlLk6GJQsqaUBKTNV-1">
          <mxGeometry x="130" y="310" width="89" height="98" as="geometry" />
        </mxCell>
        <mxCell id="TlhrCSe95SY9jLTqjl-a-17" value="" style="rounded=0;orthogonalLoop=1;jettySize=auto;html=1;fontSize=14;" edge="1" parent="WIyWlLk6GJQsqaUBKTNV-1" source="TlhrCSe95SY9jLTqjl-a-13" target="TlhrCSe95SY9jLTqjl-a-16">
          <mxGeometry relative="1" as="geometry" />
        </mxCell>
        <mxCell id="TlhrCSe95SY9jLTqjl-a-13" value="Andes HERMAN Report (JSON)" style="shape=document;whiteSpace=wrap;html=1;boundedLbl=1;fontSize=14;" vertex="1" parent="WIyWlLk6GJQsqaUBKTNV-1">
          <mxGeometry x="170" y="530" width="120" height="80" as="geometry" />
        </mxCell>
        <mxCell id="TlhrCSe95SY9jLTqjl-a-16" value="Data is&lt;br style=&quot;font-size: 14px;&quot;&gt;imported &lt;br style=&quot;font-size: 14px;&quot;&gt;into HERMAN&amp;nbsp;" style="rounded=1;whiteSpace=wrap;html=1;fontSize=14;" vertex="1" parent="WIyWlLk6GJQsqaUBKTNV-1">
          <mxGeometry x="180" y="710" width="160" height="90" as="geometry" />
        </mxCell>
        <mxCell id="TlhrCSe95SY9jLTqjl-a-18" value="- Sample / Catch Level Information&amp;nbsp;&lt;br style=&quot;font-size: 14px;&quot;&gt;- Length Frequencies&lt;br style=&quot;font-size: 14px;&quot;&gt;&lt;div style=&quot;font-size: 14px;&quot;&gt;&lt;br style=&quot;font-size: 14px;&quot;&gt;&lt;/div&gt;" style="text;html=1;strokeColor=none;fillColor=none;align=left;verticalAlign=middle;whiteSpace=wrap;rounded=0;fontSize=14;" vertex="1" parent="WIyWlLk6GJQsqaUBKTNV-1">
          <mxGeometry x="350" y="40" width="250" height="70" as="geometry" />
        </mxCell>
        <mxCell id="TlhrCSe95SY9jLTqjl-a-22" value="Digital" style="rounded=0;orthogonalLoop=1;jettySize=auto;html=1;fontSize=14;" edge="1" parent="WIyWlLk6GJQsqaUBKTNV-1" source="TlhrCSe95SY9jLTqjl-a-21" target="TlhrCSe95SY9jLTqjl-a-10">
          <mxGeometry relative="1" as="geometry" />
        </mxCell>
        <mxCell id="TlhrCSe95SY9jLTqjl-a-23" value="Paper" style="rounded=0;orthogonalLoop=1;jettySize=auto;html=1;fontSize=14;" edge="1" parent="WIyWlLk6GJQsqaUBKTNV-1" source="TlhrCSe95SY9jLTqjl-a-21" target="TlhrCSe95SY9jLTqjl-a-25">
          <mxGeometry relative="1" as="geometry">
            <mxPoint x="710" y="460" as="targetPoint" />
          </mxGeometry>
        </mxCell>
        <mxCell id="TlhrCSe95SY9jLTqjl-a-21" value="Paper &lt;br style=&quot;font-size: 14px;&quot;&gt;or &lt;br style=&quot;font-size: 14px;&quot;&gt;Digital?" style="rhombus;whiteSpace=wrap;html=1;strokeWidth=2;fontSize=14;" vertex="1" parent="WIyWlLk6GJQsqaUBKTNV-1">
          <mxGeometry x="620" y="294" width="130" height="130" as="geometry" />
        </mxCell>
        <mxCell id="TlhrCSe95SY9jLTqjl-a-28" style="rounded=0;orthogonalLoop=1;jettySize=auto;html=1;fontSize=14;" edge="1" parent="WIyWlLk6GJQsqaUBKTNV-1" source="TlhrCSe95SY9jLTqjl-a-25" target="TlhrCSe95SY9jLTqjl-a-27">
          <mxGeometry relative="1" as="geometry" />
        </mxCell>
        <mxCell id="TlhrCSe95SY9jLTqjl-a-25" value="Field Sheet" style="shape=document;whiteSpace=wrap;html=1;boundedLbl=1;fontSize=14;" vertex="1" parent="WIyWlLk6GJQsqaUBKTNV-1">
          <mxGeometry x="660" y="520" width="120" height="80" as="geometry" />
        </mxCell>
        <mxCell id="TlhrCSe95SY9jLTqjl-a-27" value="Data is manually entered into HERMAN" style="rounded=1;whiteSpace=wrap;html=1;fontSize=14;" vertex="1" parent="WIyWlLk6GJQsqaUBKTNV-1">
          <mxGeometry x="530" y="690" width="160" height="90" as="geometry" />
        </mxCell>
      </root>
    </mxGraphModel>
  </diagram>
</mxfile>
